<?xml version="1.0" encoding="UTF-8"?>
<!DOCTYPE svg PUBLIC "-//W3C//DTD SVG 1.1//EN" "http://www.w3.org/Graphics/SVG/1.1/DTD/svg11.dtd">
<svg xmlns="http://www.w3.org/2000/svg" version="1.1" width="475px" height="475px" style="shape-rendering:geometricPrecision; text-rendering:geometricPrecision; image-rendering:optimizeQuality; fill-rule:evenodd; clip-rule:evenodd" xmlns:xlink="http://www.w3.org/1999/xlink">
<g><path style="opacity:0.982" fill="#eeeeee" d="M -0.5,288.5 C -0.5,219.167 -0.5,149.833 -0.5,80.5C 1.69683,79.1554 4.03016,77.9888 6.5,77C 10.7533,76.8002 14.92,76.3002 19,75.5C 48.6667,75.5 78.3333,75.5 108,75.5C 112.83,76.1539 117.663,76.9873 122.5,78C 125.916,82.5293 127.416,87.696 127,93.5C 127.667,156.5 127.667,219.5 127,282.5C 126.492,287.012 124.325,290.512 120.5,293C 85.9209,294.188 51.5876,295.022 17.5,295.5C 10.8545,294.845 4.85451,292.511 -0.5,288.5 Z M 21.5,170.5 C 29.472,170.636 32.972,174.636 32,182.5C 26.6667,190.5 21.3333,190.5 16,182.5C 14.8735,177.089 16.7068,173.089 21.5,170.5 Z"/></g>
<g><path style="opacity:0.921" fill="#eeeeee" d="M 167.5,176.5 C 186.541,176.079 205.541,176.579 224.5,178C 238.802,184.413 245.636,195.58 245,211.5C 246.608,227.521 246.608,243.521 245,259.5C 244.769,270.789 240.602,280.289 232.5,288C 228.185,290.549 223.519,291.882 218.5,292C 201.5,292.667 184.5,292.667 167.5,292C 155.296,290.152 147.463,283.318 144,271.5C 143.055,267.886 142.388,264.219 142,260.5C 141.078,241.129 141.411,221.795 143,202.5C 145.603,188.401 153.77,179.734 167.5,176.5 Z M 189.5,197.5 C 197.486,198.11 205.486,198.61 213.5,199C 216.911,199.117 219.411,200.617 221,203.5C 222.118,211.96 222.951,220.46 223.5,229C 223.58,237.671 223.414,246.505 223,255.5C 222.703,258.914 222.036,262.247 221,265.5C 219.786,267.049 218.286,268.215 216.5,269C 211.538,269.873 206.538,270.373 201.5,270.5C 191.112,269.982 180.445,269.482 169.5,269C 168.333,267.833 167.167,266.667 166,265.5C 164.766,258.403 163.933,251.236 163.5,244C 163.969,230.777 164.803,217.61 166,204.5C 167.663,202.083 169.829,200.25 172.5,199C 178.348,198.827 184.015,198.327 189.5,197.5 Z"/></g>
<g><path style="opacity:0.921" fill="#eeeeee" d="M 284.5,176.5 C 301.503,176.333 318.503,176.5 335.5,177C 351.823,179.994 360.323,189.827 361,206.5C 361.31,217.843 361.81,229.177 362.5,240.5C 362.18,251.937 361.014,263.27 359,274.5C 354.992,286.177 346.825,292.011 334.5,292C 317.833,292.667 301.167,292.667 284.5,292C 270.47,289.822 262.303,281.655 260,267.5C 258.015,245.499 258.015,223.499 260,201.5C 263.014,187.987 271.181,179.653 284.5,176.5 Z M 289.5,198.5 C 303.171,198.333 316.837,198.5 330.5,199C 335.333,199.833 338.167,202.667 339,207.5C 339.667,225.833 339.667,244.167 339,262.5C 338.55,264.519 337.717,266.352 336.5,268C 319.913,270.923 303.246,271.256 286.5,269C 285.069,268.535 283.903,267.701 283,266.5C 281.826,262.954 281.16,259.287 281,255.5C 280.333,242.5 280.333,229.5 281,216.5C 281.303,212.106 281.97,207.773 283,203.5C 284.805,201.174 286.972,199.508 289.5,198.5 Z"/></g>
<g><path style="opacity:0.92" fill="#eeeeee" d="M 474.5,287.5 C 474.5,288.167 474.5,288.833 474.5,289.5C 473.373,290.122 472.373,290.955 471.5,292C 465.5,292.667 459.5,292.667 453.5,292C 452,290.5 450.5,289 449,287.5C 441.293,273.138 432.793,259.305 423.5,246C 415.167,245.333 406.833,245.333 398.5,246C 397.874,246.75 397.374,247.584 397,248.5C 396.967,262.927 396.3,277.26 395,291.5C 389.394,293.403 383.561,293.57 377.5,292C 376.299,291.097 375.465,289.931 375,288.5C 374.333,268.5 374.333,248.5 375,228.5C 375.309,227.234 375.809,226.067 376.5,225C 382.64,223.898 388.807,223.065 395,222.5C 403.237,223.356 411.404,223.689 419.5,223.5C 427.451,222.697 435.451,222.197 443.5,222C 444.931,221.535 446.097,220.701 447,219.5C 448.492,214.589 448.826,209.589 448,204.5C 447.208,202.413 446.041,200.579 444.5,199C 421.809,198.885 399.142,198.218 376.5,197C 376,196.5 375.5,196 375,195.5C 374.333,190.167 374.333,184.833 375,179.5C 375.903,178.299 377.069,177.465 378.5,177C 403.55,176.038 428.55,176.372 453.5,178C 463.004,182.488 468.504,189.988 470,200.5C 472.78,212.819 471.113,224.486 465,235.5C 461.153,240.202 456.653,243.868 451.5,246.5C 458.939,260.385 466.605,274.052 474.5,287.5 Z"/></g>
</svg>
