<?xml version="1.0" encoding="UTF-8"?>
<!DOCTYPE svg PUBLIC "-//W3C//DTD SVG 1.1//EN" "http://www.w3.org/Graphics/SVG/1.1/DTD/svg11.dtd">
<svg xmlns="http://www.w3.org/2000/svg" version="1.1" width="475px" height="475px" style="shape-rendering:geometricPrecision; text-rendering:geometricPrecision; image-rendering:optimizeQuality; fill-rule:evenodd; clip-rule:evenodd" xmlns:xlink="http://www.w3.org/1999/xlink">
<g><path style="opacity:0.988" fill="#000000" d="M 0.5,287.5 C 1.71515,286.221 1.38182,285.221 -0.5,284.5C -0.5,217.5 -0.5,150.5 -0.5,83.5C 1.49998,82.024 3.16664,80.1906 4.5,78C 5.83333,77.3333 7.16667,76.6667 8.5,76C 45.5206,75.0735 82.5206,75.4069 119.5,77C 124.059,78.9272 126.559,82.4272 127,87.5C 127.667,152.5 127.667,217.5 127,282.5C 125.833,289 122,292.833 115.5,294C 81.5,294.667 47.5,294.667 13.5,294C 7.73,294.449 3.39667,292.282 0.5,287.5 Z M 32.5,177.5 C 32.8711,181.003 31.8711,184.003 29.5,186.5C 23.579,189.841 18.9124,188.507 15.5,182.5C 15.5,181.167 15.5,179.833 15.5,178.5C 18.1913,170.491 23.1913,168.657 30.5,173C 31.5822,174.33 32.2488,175.83 32.5,177.5 Z"/></g>
<g><path style="opacity:0.972" fill="#010101" d="M 167.5,176.5 C 186.204,176.096 204.87,176.596 223.5,178C 231.451,180.285 237.285,185.119 241,192.5C 243.603,198.911 244.936,205.578 245,212.5C 245.675,230.85 245.342,249.183 244,267.5C 241.992,280.836 234.492,289.003 221.5,292C 203.5,292.667 185.5,292.667 167.5,292C 153.84,290.009 145.673,282.175 143,268.5C 141.053,246.489 141.053,224.489 143,202.5C 145.603,188.401 153.77,179.734 167.5,176.5 Z M 172.5,199.5 C 186.5,199.5 200.5,199.5 214.5,199.5C 218.892,200.392 221.392,203.058 222,207.5C 223.759,223.492 223.926,239.492 222.5,255.5C 222.5,257.833 222.5,260.167 222.5,262.5C 221.674,265.807 219.674,268.141 216.5,269.5C 214.585,269.216 212.919,269.549 211.5,270.5C 200.558,270.428 189.891,270.428 179.5,270.5C 176.359,269.679 173.025,269.179 169.5,269C 167.622,267.457 166.122,265.624 165,263.5C 164.552,254.497 164.052,245.497 163.5,236.5C 163.986,226.777 164.486,216.777 165,206.5C 166.083,202.582 168.583,200.248 172.5,199.5 Z"/></g>
<g><path style="opacity:0.98" fill="#010101" d="M 286.5,176.5 C 304.534,176.117 322.534,176.617 340.5,178C 353.198,182.203 360.031,191.037 361,204.5C 362.409,225.152 362.409,245.819 361,266.5C 358.908,279.896 351.408,288.396 338.5,292C 320.167,292.667 301.833,292.667 283.5,292C 270.466,289.479 262.633,281.645 260,268.5C 258.053,246.489 258.053,224.489 260,202.5C 262.816,187.516 271.649,178.849 286.5,176.5 Z M 289.5,199.5 C 303.5,199.5 317.5,199.5 331.5,199.5C 335.854,200.356 338.354,203.023 339,207.5C 340.555,223.798 340.888,240.131 340,256.5C 340.124,265.363 335.958,270.03 327.5,270.5C 313.687,270.407 300.354,270.074 287.5,269.5C 282.439,266.369 280.272,261.703 281,255.5C 280.333,241.833 280.333,228.167 281,214.5C 280.487,208.697 282.32,203.864 286.5,200C 287.448,199.517 288.448,199.351 289.5,199.5 Z"/></g>
<g><path style="opacity:0.972" fill="#010101" d="M 451.5,244.5 C 450.614,243.224 449.614,243.224 448.5,244.5C 449.032,247.691 450.698,250.024 453.5,251.5C 460.752,263.001 467.752,274.668 474.5,286.5C 474.5,287.833 474.5,289.167 474.5,290.5C 473.527,290.987 472.527,291.487 471.5,292C 465.167,292.667 458.833,292.667 452.5,292C 442.859,277.218 433.859,262.052 425.5,246.5C 426.738,246.19 426.738,245.69 425.5,245C 420.648,244.185 415.981,244.352 411.5,245.5C 407.154,245.334 402.821,245.501 398.5,246C 398,246.5 397.5,247 397,247.5C 396.817,261.878 396.317,276.211 395.5,290.5C 394.975,291.192 394.308,291.692 393.5,292C 388.167,292.667 382.833,292.667 377.5,292C 377,291.5 376.5,291 376,290.5C 374.321,269.044 374.321,247.377 376,225.5C 376.75,224.874 377.584,224.374 378.5,224C 391.128,223.67 403.462,223.17 415.5,222.5C 414.391,223.29 413.058,223.79 411.5,224C 416.833,224.167 422.167,224.333 427.5,224.5C 433.211,224.495 438.544,223.828 443.5,222.5C 447.371,219.75 449.037,215.917 448.5,211C 448.969,206.064 447.302,202.064 443.5,199C 421.833,198.667 400.167,198.333 378.5,198C 377.584,197.626 376.75,197.126 376,196.5C 374,190.5 374,184.5 376,178.5C 376.75,177.874 377.584,177.374 378.5,177C 401.833,176.333 425.167,176.333 448.5,177C 459.321,178.153 466.154,183.987 469,194.5C 473.079,209.042 471.746,223.042 465,236.5C 461.358,240.648 456.858,243.314 451.5,244.5 Z"/></g>
<g><path style="opacity:0.31" fill="#4d4d4d" d="M 15.5,178.5 C 15.5,179.833 15.5,181.167 15.5,182.5C 15.5654,182.938 15.3988,183.272 15,183.5C 14.3623,182.391 13.8623,181.225 13.5,180C 13.8361,178.97 14.5028,178.47 15.5,178.5 Z"/></g>
<g><path style="opacity:0.722" fill="#404040" d="M 32.5,177.5 C 34.3769,178.659 34.8769,180.326 34,182.5C 33.0467,184.455 31.7134,186.122 30,187.5C 29.6012,187.272 29.4346,186.938 29.5,186.5C 31.8711,184.003 32.8711,181.003 32.5,177.5 Z"/></g>
<g><path style="opacity:0.133" fill="#2b2b2b" d="M 214.5,199.5 C 200.5,199.5 186.5,199.5 172.5,199.5C 172.611,198.883 172.944,198.383 173.5,198C 175.5,197.833 177.5,197.667 179.5,197.5C 188.494,198.686 197.494,198.686 206.5,197.5C 209.59,197.522 212.257,198.188 214.5,199.5 Z"/></g>
<g><path style="opacity:0.133" fill="#2b2b2b" d="M 331.5,199.5 C 317.5,199.5 303.5,199.5 289.5,199.5C 289.611,198.883 289.944,198.383 290.5,198C 292.5,197.833 294.5,197.667 296.5,197.5C 305.329,198.723 314.162,198.723 323,197.5C 325.5,197.667 328,197.833 330.5,198C 331.056,198.383 331.389,198.883 331.5,199.5 Z"/></g>
<g><path style="opacity:0.31" fill="#5e5e5e" d="M 415.5,222.5 C 424.833,222.5 434.167,222.5 443.5,222.5C 438.544,223.828 433.211,224.495 427.5,224.5C 422.167,224.333 416.833,224.167 411.5,224C 413.058,223.79 414.391,223.29 415.5,222.5 Z"/></g>
<g><path style="opacity:0.529" fill="#363636" d="M 411.5,245.5 C 415.981,244.352 420.648,244.185 425.5,245C 426.738,245.69 426.738,246.19 425.5,246.5C 420.93,245.559 416.263,245.226 411.5,245.5 Z"/></g>
<g><path style="opacity:0.984" fill="#434343" d="M 451.5,244.5 C 451.878,246.921 452.545,249.254 453.5,251.5C 450.698,250.024 449.032,247.691 448.5,244.5C 449.614,243.224 450.614,243.224 451.5,244.5 Z"/></g>
<g><path style="opacity:0.31" fill="#4e4e4e" d="M 222.5,262.5 C 222.5,260.167 222.5,257.833 222.5,255.5C 223.222,255.082 223.722,254.416 224,253.5C 224.817,256.964 224.483,260.298 223,263.5C 222.601,263.272 222.435,262.938 222.5,262.5 Z"/></g>
<g><path style="opacity:0.596" fill="#696969" d="M 211.5,270.5 C 200.552,271.503 188.219,271.836 174.5,271.5C 175.292,270.482 176.959,270.149 179.5,270.5C 189.891,270.428 200.558,270.428 211.5,270.5 Z"/></g>
<g><path style="opacity:0.596" fill="#525252" d="M 287.5,269.5 C 300.354,270.074 313.687,270.407 327.5,270.5C 328.552,270.351 329.552,270.517 330.5,271C 330.167,271.333 329.833,271.667 329.5,272C 316.833,272.667 304.167,272.667 291.5,272C 289.563,271.878 288.23,271.045 287.5,269.5 Z"/></g>
<g><path style="opacity:0.984" fill="#353535" d="M 211.5,270.5 C 212.919,269.549 214.585,269.216 216.5,269.5C 216.423,270.75 215.756,271.583 214.5,272C 200.994,272.827 187.66,272.66 174.5,271.5C 188.219,271.836 200.552,271.503 211.5,270.5 Z"/></g>
<g><path style="opacity:0.596" fill="#7a7a7a" d="M -0.5,284.5 C 1.38182,285.221 1.71515,286.221 0.5,287.5C 0.166667,287.5 -0.166667,287.5 -0.5,287.5C -0.5,286.5 -0.5,285.5 -0.5,284.5 Z"/></g>
</svg>
